<?xml version="1.0" encoding="utf-8"?>
<!-- Generator: Adobe Illustrator 21.0.2, SVG Export Plug-In . SVG Version: 6.00 Build 0)  -->
<svg version="1.1" id="inst_svg" xmlns="http://www.w3.org/2000/svg" xmlns:xlink="http://www.w3.org/1999/xlink" width="100%" height="100%" x="0px" y="0px" fill="#ffffff" viewBox="0 0 198.1 198" style="enable-background:new 0 0 198.1 198;" xml:space="preserve">
<g id="surface1">
	<path d="M58.3,0C26.3,0,0,26.2,0,58.2v81.6c0,32,26.2,58.2,58.2,58.2h81.6c32,0,58.2-26.2,58.2-58.2V58.2c0-32-26.2-58.2-58.2-58.2
		H58.3z M58.3,18h81.6c22.3,0,40.2,18,40.2,40.2v81.6c0,22.3-18,40.2-40.2,40.2H58.3C36,180,18,162.1,18,139.8V58.2
		C18,36,36,18,58.3,18z M152.2,37.7c-4.5,0-8.2,3.6-8.2,8.2s3.6,8.2,8.2,8.2s8.2-3.6,8.2-8.2S156.7,37.7,152.2,37.7z M99,45
		c-29.7,0-54,24.3-54,54s24.3,54,54,54s54-24.3,54-54S128.7,45,99,45z M99,63c20,0,36,16,36,36s-16,36-36,36s-36-16-36-36
		S79,63,99,63z"/>
</g>
</svg>
