<svg width="134" height="45" viewBox="0 0 134 45" fill="none" xmlns="http://www.w3.org/2000/svg">
<path fill-rule="evenodd" clip-rule="evenodd" d="M0 2.00676C2.82802 1.7027 5.5357 1.58108 8.06287 1.7027V0H9.98833V1.82432C20.0368 2.67568 27.0768 6.81081 31.048 12.1014C33.3947 15.3243 34.6583 18.9122 34.7185 22.5608C34.7786 26.2095 33.6956 29.8581 31.3489 33.0203C27.5582 38.25 20.5182 42.2635 10.0485 43.1149V44.8176H8.12304V43.1757C5.71621 43.2973 3.12887 43.1757 0.361024 42.9324L0.541536 40.9865C3.24921 41.2297 5.77638 41.2905 8.12304 41.2297V3.64865C5.59587 3.52703 3.00853 3.64865 0.180512 3.9527L0 2.00676ZM9.98833 41.1081C19.736 40.3176 26.2344 36.6081 29.7243 31.8041C31.7701 28.9459 32.793 25.7838 32.7328 22.5608C32.6727 19.3378 31.5896 16.1149 29.4836 13.2568C25.8734 8.39189 19.3148 4.62162 9.98833 3.77027V41.1081Z" fill="black"/>
<path fill-rule="evenodd" clip-rule="evenodd" d="M98.3188 32.777C94.167 34.3581 90.9178 34.2364 88.6313 33.1418C87.3677 32.5337 86.3448 31.6824 85.7431 30.5878C85.0813 29.554 84.7804 28.3378 84.7804 27.0608C84.7804 25.054 85.683 22.9256 87.4279 21.3446L87.4881 21.2837L87.5482 21.2229C91.2187 18.8513 94.8891 19.2162 97.2357 20.4932C98.5595 21.2229 99.462 22.2567 99.8832 23.4121C100.304 24.6891 100.124 25.9662 99.0408 27.0608C97.5967 28.5202 94.4679 29.554 88.9923 29.1283L89.1127 27.1824C93.9263 27.5473 96.5137 26.7567 97.5967 25.6621C98.0781 25.1756 98.1984 24.5675 98.0179 23.9594C97.7772 23.2905 97.1755 22.6216 96.273 22.0743C94.4679 21.0405 91.5797 20.8581 88.6313 22.6824C87.3076 23.8986 86.6457 25.4797 86.6457 26.9391C86.6457 27.8513 86.8864 28.7027 87.3677 29.4324C87.8491 30.1621 88.511 30.831 89.4737 31.2567C91.339 32.1081 94.0467 32.1689 97.5967 30.831L98.3188 32.777Z" fill="black"/>
<path fill-rule="evenodd" clip-rule="evenodd" d="M116.912 28.5811H123.35H129.788C128.825 26.8175 127.802 25.4189 126.84 24.4459C125.636 23.2297 124.493 22.6216 123.35 22.6216C122.207 22.6216 121.063 23.2297 119.86 24.4459C118.837 25.4189 117.874 26.8175 116.912 28.5811ZM123.35 30.5878H115.889C115.407 31.5608 114.926 32.6554 114.445 33.8108L112.639 33.0202C114.505 28.3378 116.49 25.054 118.476 22.9865C120.04 21.4054 121.665 20.6148 123.35 20.554C125.035 20.554 126.659 21.4054 128.224 22.9865C130.209 24.9932 132.135 28.3378 134.06 33.0202L132.255 33.8108C131.774 32.6554 131.292 31.5608 130.811 30.5878H123.35Z" fill="black"/>
<path d="M81.6515 21.7095H79.7261V33.1419H81.6515V21.7095Z" fill="black"/>
<path d="M81.5914 11.7365H79.6659V15.9324H81.5914V11.7365Z" fill="black"/>
<path fill-rule="evenodd" clip-rule="evenodd" d="M62.5774 23.7162C63.9012 22.2567 65.4656 21.4054 67.0301 20.9797C68.4742 20.6148 69.9183 20.554 71.1818 20.8581C72.5056 21.1621 73.709 21.7702 74.5514 22.6824C75.6345 23.777 76.2362 25.1756 76.176 26.8175V33.1418H74.2505V26.8175V26.7567C74.3107 25.6621 73.8895 24.75 73.2276 24.0202C72.6259 23.4121 71.7835 22.9256 70.8208 22.7432C69.8581 22.5 68.7149 22.5 67.6318 22.804C65.7665 23.2905 63.9614 24.6283 62.6376 27V33.1418H60.7122V21.7094H62.6376V23.7162H62.5774Z" fill="black"/>
<path fill-rule="evenodd" clip-rule="evenodd" d="M40.555 28.5811H46.9932H53.4315C52.4687 26.8175 51.4458 25.4189 50.4831 24.4459C49.2797 23.2297 48.1365 22.6216 46.9932 22.6216C45.85 22.6216 44.7067 23.2297 43.5033 24.4459C42.5406 25.4189 41.5779 26.8175 40.555 28.5811ZM47.0534 30.5878H39.532C39.0507 31.5608 38.5693 32.6554 38.088 33.8108L36.2828 33.0202C38.1481 28.3378 40.1338 25.054 42.1194 22.9865C43.6838 21.4054 45.3084 20.6148 46.9932 20.554C48.678 20.554 50.3026 21.4054 51.867 22.9865C53.8527 24.9932 55.7781 28.3378 57.7036 33.0202L55.8985 33.8108C55.4171 32.6554 54.9357 31.5608 54.4544 30.5878H47.0534Z" fill="black"/>
<path d="M105.178 5.59461H103.253V33.1419H105.178V5.59461Z" fill="black"/>
<path d="M109.631 5.59461H107.705V33.1419H109.631V5.59461Z" fill="black"/>
<path fill-rule="evenodd" clip-rule="evenodd" d="M36.7643 44.8784H37.1253V42.5676C37.1253 41.7771 37.6668 41.1081 38.3889 41.1081C39.1109 41.1081 39.5321 41.5946 39.5321 42.446V44.8176H39.8932V42.5676C39.8932 41.6554 40.4949 41.169 41.1567 41.169C41.8788 41.169 42.3 41.6554 42.3 42.5068V44.8784H42.7212V42.446C42.7212 41.473 42.1195 40.8041 41.2169 40.8041C40.4949 40.8041 40.0737 41.2298 39.7728 41.6554C39.5321 41.169 39.1109 40.8041 38.4491 40.8041C37.727 40.8041 37.366 41.169 37.1253 41.5946V40.8649H36.7643V44.8784ZM47.956 45C48.6781 45 49.0993 44.6352 49.4001 44.1487V44.8784H49.7611V40.8649H49.3399V43.1757C49.3399 44.0271 48.7382 44.5744 47.956 44.5744C47.1738 44.5744 46.6924 44.0271 46.6924 43.2365V40.8649H46.3314V43.2973C46.3314 44.3311 46.9331 45 47.956 45ZM53.5519 44.8784H53.9129V39.1622H53.5519V44.8784ZM59.0274 44.9392C59.2681 44.9392 59.4486 44.8784 59.6893 44.8176V44.4527C59.4486 44.5744 59.3283 44.5744 59.0876 44.5744C58.6062 44.5744 58.3054 44.3919 58.3054 43.7838V41.2298H59.6893V40.8649H58.3054V39.5879H57.9443V40.8649H57.3426V41.2298H57.9443V43.8446C57.9443 44.6352 58.4257 44.9392 59.0274 44.9392ZM63.1792 44.8784H63.5402V40.8649H63.1792V44.8784ZM63.1792 39.8919H63.6606V39.3446H63.1792V39.8919ZM69.3768 45C70.3395 45 71.3022 44.2095 71.3022 42.9325C71.3022 41.5946 70.3395 40.8649 69.3768 40.8649C68.5945 40.8649 68.1132 41.3514 67.7522 41.8379V39.223H67.3911V44.9392H67.7522V44.0879C68.1132 44.5136 68.5945 45 69.3768 45ZM69.3768 44.6352C68.5344 44.6352 67.7522 43.9663 67.7522 42.9325C67.7522 41.8987 68.5344 41.2298 69.3768 41.2298C70.2192 41.2298 70.9412 41.8987 70.9412 42.9325C70.881 43.9663 70.2192 44.6352 69.3768 44.6352ZM74.7921 44.8784H75.1531V43.2365C75.1531 41.9595 75.9354 41.2298 76.8379 41.2298H76.8981V40.8041C76.1159 40.7433 75.454 41.2906 75.1531 42.0203V40.8649H74.7921V44.8784ZM81.4109 45C82.1329 45 82.6745 44.6352 82.9152 44.2703V44.9392H83.2762V42.446C83.2762 41.9595 83.1558 41.5946 82.855 41.2906C82.5541 40.9865 82.1329 40.8649 81.5914 40.8649C81.0499 40.8649 80.6287 40.9865 80.2075 41.2298L80.3278 41.5946C80.6888 41.4122 81.11 41.2906 81.5914 41.2906C82.3736 41.2906 82.9152 41.7163 82.9152 42.5068V42.6892C82.5541 42.5676 82.1329 42.5068 81.5914 42.5068C80.5685 42.5068 79.8465 42.9933 79.8465 43.7838C79.9066 44.5744 80.6888 45 81.4109 45ZM81.4711 44.6352C80.8694 44.6352 80.3278 44.2703 80.3278 43.723C80.3278 43.1757 80.8092 42.75 81.6516 42.75C82.1931 42.75 82.6745 42.8717 82.9753 42.9325V43.3582C82.9152 44.1487 82.2533 44.6352 81.4711 44.6352ZM87.0068 44.8784H87.3678V42.5676C87.3678 41.7163 87.9695 41.169 88.7517 41.169C89.5339 41.169 90.0153 41.7163 90.0153 42.5068V44.8784H90.3763V42.446C90.3763 41.473 89.7746 40.8041 88.8119 40.8041C88.0898 40.8041 87.6686 41.169 87.3678 41.6554V40.9257H87.0068V44.8784ZM95.6713 45C96.4536 45 96.9349 44.5136 97.2959 44.0271V44.9392H97.657V39.223H97.2959V41.7771C96.9951 41.2906 96.4536 40.8041 95.6713 40.8041C94.7086 40.8041 93.7459 41.5946 93.7459 42.8717C93.806 44.2095 94.7688 45 95.6713 45ZM95.7315 44.6352C94.8891 44.6352 94.1671 43.9663 94.1671 42.9325C94.1671 41.8379 94.8289 41.2298 95.7315 41.2298C96.5739 41.2298 97.3561 41.8987 97.3561 42.9325C97.3561 43.9054 96.5739 44.6352 95.7315 44.6352ZM107.344 45C108.127 45 108.728 44.5744 108.728 43.8446C108.728 43.1149 108.066 42.8717 107.405 42.6892C106.863 42.5068 106.322 42.3852 106.322 41.8987C106.322 41.473 106.683 41.169 107.224 41.169C107.645 41.169 108.066 41.3514 108.428 41.5946L108.608 41.2906C108.187 41.0473 107.705 40.8649 107.224 40.8649C106.442 40.8649 105.9 41.3514 105.9 41.9595C105.9 42.6892 106.622 42.8717 107.224 43.0541C107.766 43.2365 108.247 43.3581 108.247 43.8446C108.247 44.3311 107.826 44.6352 107.284 44.6352C106.803 44.6352 106.322 44.4527 105.84 44.0879L105.599 44.3919C106.201 44.7568 106.803 45 107.344 45ZM113.602 44.9392C113.843 44.9392 114.023 44.8784 114.264 44.8176V44.4527C114.023 44.5744 113.903 44.5744 113.662 44.5744C113.181 44.5744 112.88 44.3919 112.88 43.7838V41.2298H114.264V40.8649H112.88V39.5879H112.519V40.8649H111.917V41.2298H112.519V43.8446C112.459 44.6352 112.94 44.9392 113.602 44.9392ZM119.439 45C120.642 45 121.485 44.0271 121.485 42.9325C121.485 41.7771 120.642 40.8649 119.439 40.8649C118.235 40.8649 117.393 41.8379 117.393 42.9325C117.393 44.0271 118.235 45 119.439 45ZM119.439 44.6352C118.536 44.6352 117.814 43.8446 117.814 42.9325C117.814 41.9595 118.536 41.2298 119.439 41.2298C120.341 41.2298 121.063 42.0203 121.063 42.9325C121.063 43.8446 120.281 44.6352 119.439 44.6352ZM124.914 44.8784H125.275V43.2365C125.275 41.9595 126.057 41.2298 126.96 41.2298H127.02V40.8041C126.238 40.7433 125.576 41.2906 125.275 42.0203V40.8649H124.914V44.8784ZM132.014 45C132.797 45 133.218 44.696 133.639 44.2703L133.398 44.0271C133.097 44.3919 132.676 44.6352 132.075 44.6352C131.292 44.6352 130.57 44.0271 130.51 43.0541H133.759C133.759 42.9933 133.759 42.9933 133.759 42.8717C133.759 41.7163 133.037 40.8041 131.954 40.8041C130.871 40.8041 130.089 41.7163 130.089 42.8717C130.089 44.1487 130.991 45 132.014 45ZM130.51 42.6892C130.57 41.7771 131.172 41.169 131.954 41.169C132.857 41.169 133.338 41.8987 133.398 42.6892H130.51Z" fill="black"/>
</svg>
